# xmcd
#
# Track frame offsets:
#	150
#	10312
#	28597
#	51280
#	66487
#	81600
#	102407
#	118432
#	138017
#	155455
#	171852
#	187670
#
# Disc length: 2730 seconds
#
# Revision: 0
# Processed by: cddbd v1.4PL0 Copyright (c) Steve Scherf et al.
# Submitted via: audiograbber 1.81.01
#
DISCID=a50aa80c
DTITLE=Schola Cantorum - I Grandi Successi Originali cd2
DYEAR=1900
DGENRE=pop
TTITLE0=Se tu fossi una rosa
TTITLE1=La felicità
TTITLE2=Campo de' fiori
TTITLE3=Il mio modo di vivere
TTITLE4=La luna
TTITLE5=la mia musica
TTITLE6=Wimoweh (The lyon sleeps tonight)
TTITLE7=Silvia
TTITLE8=pierròt
TTITLE9=La montanara
TTITLE10=Inno all'amore
TTITLE11=La bamba
EXTD=
EXTT0=
EXTT1=
EXTT2=
EXTT3=
EXTT4=
EXTT5=
EXTT6=
EXTT7=
EXTT8=
EXTT9=
EXTT10=
EXTT11=
PLAYORDER=
